# xmcd CD database file
#
# Track frame offsets:
#	150
#	27525
#	53385
#	78298
#	104753
#	129538
#	152223
#	180778
#	205035
#	230643
#	253818
#	278590
#
# Disc length: 4096 seconds
#
# Revision: 0
# Processed by: cddbd v1.4PL0 Copyright (c) Steve Scherf et al.
# Submitted via: CDex 1.50
#
DISCID=9a0ffe0c
DTITLE=Various Artist - A New World of Experience - Collection 1
DYEAR=1991
DGENRE=New Age
TTITLE0=Medwyn Goodall/Nine Maidens
TTITLE1=Denis Quinn/Luna Nueva
TTITLE2=Terry Oldfield/The Listening Heart
TTITLE3=Stairway/Aquamarine
TTITLE4=Peter Howell/Golden Space
TTITLE5=Terry Oldfield/Celebration in Katmandu
TTITLE6=Medwyn Goodall/Mystic Potions
TTITLE7=Phil Thornton/Guiding Light
TTITLE8=Terry Oldfield/Surrender into Immensity
TTITLE9=John Richardson/Watching Life
TTITLE10=Med Goodall/Tideline
TTITLE11=Phil Thornton/Transformation
EXTD=YEAR: 1991
EXTT0=
EXTT1=
EXTT2=
EXTT3=
EXTT4=
EXTT5=
EXTT6=
EXTT7=
EXTT8=
EXTT9=
EXTT10=
EXTT11=
PLAYORDER=
